<svg width="15" height="15" viewBox="0 0 15 15" fill="none" xmlns="http://www.w3.org/2000/svg">
<path d="M1.6666 8.3331L1.6666 9.99974L3.33325 9.99974L3.33325 8.3331C7.22208 8.3331 11.1109 8.3331 14.9998 8.3331L14.9998 6.66645C11.1109 6.66645 7.22208 6.66645 3.33325 6.66645L3.33325 4.99981L1.6666 4.99981L1.6666 6.66645L-3.91536e-05 6.66645L-3.90079e-05 8.3331L1.6666 8.3331Z" fill="#E3CED3"/>
<path d="M5 11.6667L5 10.0001L3.33336 10.0001L3.33336 11.6667L5 11.6667Z" fill="#E3CED3"/>
<path d="M6.6665 13.3333L6.6665 11.6667L4.99986 11.6667L4.99986 13.3333L6.6665 13.3333Z" fill="#E3CED3"/>
<path d="M8.33325 15L8.33325 13.3333L6.66661 13.3333L6.66661 15L8.33325 15Z" fill="#E3CED3"/>
<path d="M5 3.33362L3.33336 3.33362L3.33336 5.00026L5 5.00026L5 3.33362Z" fill="#E3CED3"/>
<path d="M6.6665 1.66662L4.99986 1.66662L4.99986 3.33327L6.6665 3.33327L6.6665 1.66662Z" fill="#E3CED3"/>
<path d="M8.33325 -2.6226e-06L6.66661 -2.4769e-06L6.66661 1.66664L8.33325 1.66664L8.33325 -2.6226e-06Z" fill="#E3CED3"/>
</svg>
