<svg width="13" height="13" viewBox="0 0 13 13" fill="none" xmlns="http://www.w3.org/2000/svg">
<path d="M11.5556 5.77794V4.3335H10.1111V5.77794C6.74074 5.77794 3.37037 5.77794 0 5.77794V7.22238C3.37037 7.22238 6.74074 7.22238 10.1111 7.22238V8.66683H11.5556V7.22238H13V5.77794H11.5556Z" fill="#4D4545"/>
<path d="M8.66663 2.88867V4.33312H10.1111V2.88867H8.66663Z" fill="#4D4545"/>
<path d="M7.22217 1.44434V2.88878H8.66661V1.44434H7.22217Z" fill="#4D4545"/>
<path d="M5.77783 0V1.44444H7.22228V0H5.77783Z" fill="#4D4545"/>
<path d="M8.66663 10.1109H10.1111V8.6665H8.66663V10.1109Z" fill="#4D4545"/>
<path d="M7.22217 11.5558H8.66661V10.1113H7.22217V11.5558Z" fill="#4D4545"/>
<path d="M5.77783 13.0001H7.22228V11.5557H5.77783V13.0001Z" fill="#4D4545"/>
</svg>
