<svg width="30" height="30" viewBox="0 0 30 30" fill="none" xmlns="http://www.w3.org/2000/svg">
<path d="M26.6667 13.3335V10.0002H23.3333V13.3335C15.5556 13.3335 7.77778 13.3335 0 13.3335V16.6669C7.77778 16.6669 15.5556 16.6669 23.3333 16.6669V20.0002H26.6667V16.6669H30V13.3335H26.6667Z" fill="black"/>
<path d="M19.9995 6.66602V9.99932H23.3328V6.66602H19.9995Z" fill="black"/>
<path d="M16.667 3.33301V6.66631H20.0003V3.33301H16.667Z" fill="black"/>
<path d="M13.3331 0V3.3333H16.6665V0H13.3331Z" fill="black"/>
<path d="M19.9995 23.3325H23.3328V19.9992H19.9995V23.3325Z" fill="black"/>
<path d="M16.667 26.667H20.0003V23.3337H16.667V26.667Z" fill="black"/>
<path d="M13.333 30.0001H16.6663V26.6667H13.333V30.0001Z" fill="black"/>
</svg>
