<svg width="18" height="18" viewBox="0 0 18 18" fill="none" xmlns="http://www.w3.org/2000/svg">
<path d="M18.0001 15.4286H15.4287V18H18.0001V15.4286Z" fill="black"/>
<path d="M10.2857 7.71436H7.71423V10.2858H10.2857V7.71436Z" fill="black"/>
<path d="M7.71413 10.2856H5.1427V12.8571H7.71413V10.2856Z" fill="black"/>
<path d="M5.14271 12.8571H2.57129V15.4285H5.14271V12.8571Z" fill="black"/>
<path d="M2.57143 15.4286H0V18H2.57143V15.4286Z" fill="black"/>
<path d="M12.8572 5.14288H10.2858V7.71431H12.8572V5.14288Z" fill="black"/>
<path d="M15.4286 2.57135H12.8572V5.14278H15.4286V2.57135Z" fill="black"/>
<path d="M18.0001 0H15.4287V2.57143H18.0001V0Z" fill="black"/>
<path d="M12.8572 10.2856H10.2858V12.8571H12.8572V10.2856Z" fill="black"/>
<path d="M15.4286 12.8571H12.8572V15.4285H15.4286V12.8571Z" fill="black"/>
<path d="M7.71413 5.14288H5.1427V7.71431H7.71413V5.14288Z" fill="black"/>
<path d="M2.57143 0H0V2.57143H2.57143V0Z" fill="black"/>
<path d="M5.14271 2.57135H2.57129V5.14278H5.14271V2.57135Z" fill="black"/>
</svg>
