<svg width="235" height="243" viewBox="0 0 235 243" fill="none" xmlns="http://www.w3.org/2000/svg">
<path fill-rule="evenodd" clip-rule="evenodd" d="M117.798 19.5575L117.871 21.0694L111.828 21.362L111.755 19.8501L113.267 19.7769L112.779 9.2032L111.272 9.27637L111.199 7.76934L112.706 7.69617L112.633 6.18426L115.657 6.03793L116.31 19.6306L117.798 19.5575ZM112.462 3.16527L112.321 0.141457L115.34 0L115.486 3.01899L112.462 3.16527ZM97.348 22.0302L97.0503 20.567L95.5677 20.8353L92.3294 4.52603L99.7475 3.06288L99.4501 1.59973L87.5887 3.95538L87.8814 5.41852L89.3445 5.12591L92.8755 22.9178L91.4123 23.2105L91.71 24.6736L96.158 23.7859L95.8603 22.3228L97.348 22.0302ZM97.6404 23.5323L103.571 22.3569L103.278 20.8938L97.348 22.0692L97.6404 23.5323ZM108.326 15.246L106.561 6.35008L105.103 6.63781L104.513 3.67252L103.049 3.97002L102.757 2.50687L99.7914 3.09705L100.084 4.5602L101.547 4.26752L102.137 7.23287L103.6 6.94026L105.366 15.8362L103.903 16.1288L104.488 19.0941L103.025 19.3916L103.323 20.8547L106.288 20.2646L105.99 18.8015L107.453 18.5089L106.863 15.5386L108.326 15.246ZM75.4546 16.7628C77.184 17.4949 78.5762 18.8488 79.3563 20.5572L79.8733 21.6205L69.8311 26.5366C70.4237 27.7024 71.3625 28.6563 72.5185 29.2678C73.0509 29.5166 73.6346 29.6361 74.2219 29.6166C74.8093 29.5971 75.3837 29.4392 75.8985 29.1556C77.8249 28.2144 78.4832 26.839 78.4149 24.6882L80.8535 24.576C80.929 25.9821 80.6135 27.3816 79.9417 28.6192C79.2052 29.7622 78.1482 30.6629 76.9029 31.2089C74.9261 32.1843 73.068 32.251 71.3285 31.4089C69.5252 30.5142 68.0865 29.0238 67.256 27.1901C66.3119 25.4132 66.0121 23.3642 66.4075 21.3912C66.8123 19.4988 68.012 18.0552 69.9873 17.0896C71.9625 16.1239 73.7524 16.0361 75.4546 16.7628ZM76.4738 20.7182C75.0107 18.8649 73.0891 18.1381 71.0065 19.1575C68.924 20.1768 68.3583 22.0838 68.9533 24.4004L76.4738 20.7182ZM57.9795 26.2781C57.2575 26.0365 56.4828 25.9994 55.741 26.1709C54.8143 26.3027 53.931 26.6484 53.161 27.1805C51.3954 28.4534 50.4541 30.0238 50.3371 31.8674C50.22 33.711 50.8639 35.5935 52.2343 37.5151C53.6048 39.4367 55.1752 40.6512 56.9603 41.1389C58.7453 41.6266 60.5351 41.2364 62.3006 39.9781C63.0397 39.4512 63.6445 38.7578 64.0662 37.9541C64.4701 37.2626 64.6855 36.4772 64.6906 35.6764L65.7782 37.203L67.846 35.7398L55.3995 18.3186L53.3365 19.7818L57.9795 26.2781ZM61.5302 30.8724C62.4172 32.0046 62.9025 33.3994 62.9103 34.8376C62.8955 35.4609 62.7299 36.0714 62.4276 36.6167C62.1252 37.1621 61.6949 37.626 61.174 37.9687C60.6807 38.3412 60.106 38.5911 59.4972 38.698C58.8884 38.8048 58.263 38.7655 57.6723 38.5832C56.3021 38.1271 55.1285 37.2169 54.346 36.0032C53.4528 34.8745 52.9759 33.4725 52.9952 32.0332C53.0119 31.4149 53.1754 30.8093 53.4722 30.2666C53.769 29.7239 54.1906 29.2595 54.7022 28.9118C55.1955 28.5282 55.7751 28.2712 56.3906 28.1633C57.0062 28.0553 57.6387 28.0996 58.2332 28.2924C59.5892 28.7604 60.7499 29.6686 61.5302 30.8724ZM37.7833 33.0038C37.7885 32.7512 37.8454 32.5024 37.9502 32.2726C38.055 32.0428 38.2056 31.8369 38.3929 31.6674C38.5775 31.491 38.7957 31.3535 39.0345 31.2631C39.2732 31.1726 39.5278 31.131 39.783 31.1407C40.0371 31.1498 40.2869 31.2108 40.5167 31.3198C40.7465 31.4288 40.9516 31.5836 41.1194 31.7747C41.288 31.9541 41.4182 32.166 41.5021 32.3974C41.586 32.6289 41.6217 32.8751 41.6071 33.1208C41.598 33.375 41.5371 33.6246 41.428 33.8544C41.319 34.0842 41.1641 34.2893 40.973 34.4571C40.7936 34.6336 40.5798 34.771 40.3447 34.8609C40.1097 34.9507 39.8588 34.9909 39.6074 34.979C39.3606 34.9751 39.1172 34.9197 38.893 34.8164C38.6688 34.7131 38.4687 34.5641 38.3053 34.3791C38.1283 34.1981 37.9905 33.9826 37.9007 33.7459C37.8109 33.5093 37.7709 33.2566 37.7833 33.0038ZM41.685 37.0518L43.5432 35.3204L53.917 46.4745L52.0587 48.2059L41.685 37.0518ZM37.8176 58.96L26.7366 54.0828L25.0784 56.1702L39.8659 62.0667L41.3778 60.1744L34.2086 50.6054L45.1088 55.4826L46.6208 53.5902L37.6128 40.4561L35.9446 42.5483L43.1337 52.3026L32.1405 47.3328L30.5554 49.3178L37.8176 58.96ZM20.6889 65.1394C21.2708 64.6476 21.9786 64.3284 22.7324 64.2176L15.641 60.5353L16.8114 58.282L35.8323 68.1486L34.6619 70.4067L32.9989 69.5386C33.3637 70.254 33.532 71.0534 33.4866 71.8552C33.4772 72.7627 33.2531 73.6552 32.8329 74.4596C31.8575 76.4105 30.3944 77.5468 28.6045 77.9175C26.8146 78.2882 24.8393 77.9175 22.7519 76.8397C20.6645 75.7618 19.2305 74.3572 18.4989 72.6648C17.7673 70.9724 17.8845 69.1338 18.8892 67.2073C19.3203 66.3875 19.9364 65.6795 20.6889 65.1394ZM31.0138 69.602C30.3581 68.3166 29.2922 67.2868 27.9851 66.6757C26.7429 65.9561 25.2949 65.6744 23.8735 65.8758C23.2562 65.9727 22.672 66.2194 22.172 66.5944C21.6721 66.9693 21.2717 67.4611 21.0058 68.0267C20.7059 68.569 20.5406 69.1754 20.5236 69.7949C20.5066 70.4145 20.6386 71.029 20.9084 71.587C21.5421 72.8799 22.6034 73.9138 23.9126 74.5132C25.1615 75.2384 26.6206 75.5154 28.0484 75.2985C28.6569 75.1925 29.2315 74.9436 29.7249 74.5722C30.2184 74.2008 30.6168 73.7176 30.8871 73.1623C31.1917 72.622 31.3613 72.0163 31.3817 71.3964C31.4021 70.7766 31.2725 70.161 31.004 69.602H31.0138ZM8.5935 75.5765L7.69594 77.9517L27.7313 85.5015L28.6287 83.1263L8.5935 75.5765ZM9.63703 92.7489L10.3005 90.3104L12.8072 90.9883C12.1117 90.3333 11.6062 89.5025 11.344 88.5838C11.0597 87.7202 11.0242 86.794 11.2416 85.9112C11.4021 85.2083 11.7376 84.5573 12.2171 84.0188L14.2753 85.1113C13.86 85.573 13.5591 86.1261 13.3973 86.7257C13.0949 87.8377 13.4607 88.9789 14.4947 90.1397C15.5286 91.3004 17.1724 92.1783 19.4354 92.7928L25.0098 94.2999L24.3466 96.7385L9.63703 92.7489ZM8.87148 110.477C10.2295 111.993 12.1042 112.948 14.129 113.155C16.1489 113.457 18.2089 112.993 19.9037 111.853C20.7313 111.294 21.4235 110.557 21.9298 109.697C22.4361 108.836 22.7437 107.873 22.83 106.878C22.9905 105.891 22.9273 104.88 22.6454 103.92C22.3635 102.961 21.8698 102.076 21.2008 101.333C19.8445 99.8114 17.9702 98.8499 15.9434 98.6356C13.9259 98.3463 11.8729 98.8174 10.1834 99.9574C9.3483 100.51 8.64882 101.244 8.13705 102.104C7.62527 102.965 7.31439 103.93 7.22782 104.927C7.06559 105.916 7.12918 106.929 7.41381 107.891C7.69844 108.852 8.19678 109.736 8.87148 110.477ZM18.5039 109.819C17.2765 110.52 15.849 110.788 14.4509 110.58C13.0487 110.441 11.7349 109.831 10.7247 108.848C10.2415 108.388 9.8783 107.816 9.66664 107.182C9.45498 106.549 9.40142 105.874 9.51042 105.215C9.56583 104.547 9.78356 103.903 10.1448 103.338C10.5061 102.774 10.9999 102.307 11.5832 101.977C12.8039 101.272 14.228 101.004 15.6214 101.216C17.0271 101.357 18.3444 101.967 19.3621 102.947C19.842 103.413 20.2016 103.988 20.4097 104.624C20.6179 105.259 20.6685 105.936 20.5571 106.595C20.5011 107.259 20.2849 107.898 19.9272 108.46C19.5696 109.021 19.0813 109.488 18.5039 109.819ZM18.8552 133.932L2.07756 139.784L2.33118 142.593L22.8934 135.029L22.6397 132.254L7.76916 129.191L21.8496 123.495L21.596 120.729L0 117.032L0.253622 119.827L17.8114 122.529L3.28708 128.382L3.50665 130.82L18.8552 133.932ZM121.222 26.9658L130.264 27.7218L130.391 26.2001L124.363 25.7124L124.49 24.2053L122.983 24.0785L123.109 22.5715L120.095 22.3179L119.841 25.332L121.349 25.4588L121.222 26.9658ZM133.288 9.76895L131.781 9.64214L131.927 8.13681L133.415 8.26681L133.288 9.76895ZM132.8 15.7971L133.288 9.76895L136.302 10.0226L136.556 7.00847L132.034 6.63297L131.908 8.13355L130.42 8.01319L130.547 6.50616L123.017 5.87211L122.89 7.37913L121.383 7.25232L120.749 14.7827L122.256 14.9095L122.129 16.4165L120.622 16.2897L120.368 19.3038L121.875 19.4306L121.749 20.9377L130.791 21.6985L130.41 26.2147L131.917 26.3415L132.044 24.8345L133.551 24.9613L133.8 21.9472L132.298 21.8253L132.42 20.3183L123.382 19.5574L123.636 16.5433L131.171 17.1774L131.293 15.6703L132.8 15.7971ZM124.397 7.52547L130.42 8.01319L129.786 15.5435L123.763 15.0558L124.397 7.52547ZM143.813 22.5423L143.486 24.0054L137.58 22.713L137.902 21.2498L139.365 21.5717L141.628 11.2321L140.165 10.9102L140.491 9.44705L141.955 9.76896L142.281 8.30581L145.232 8.95445L142.306 22.2447L143.813 22.5423ZM142.935 5.32588L143.583 2.37029L146.534 3.01899L145.89 5.94529L142.935 5.32588ZM151.748 26.5025L152.197 25.0394L153.66 25.4929L154.113 24.0249L152.65 23.5762L152.197 25.0394L149.329 24.0981L152.938 12.5538L157.269 13.9097L157.718 12.4465L153.391 11.0907L154.294 8.20341L152.831 7.75469L152.377 9.21784L150.938 8.7643L150.485 10.2274L149.022 9.77873L148.573 11.2419L150.036 11.6906L146.427 23.2348L147.866 23.6835L147.417 25.1467L151.748 26.5025ZM162.858 29.4873L162.2 30.848L156.752 28.2241L157.41 26.8585L156.045 26.205L157.995 22.118L159.356 22.7715L160.015 21.4107L161.375 22.0691L159.425 26.1562L160.79 26.8098L160.132 28.1753L162.858 29.4873ZM162.858 29.4873L163.512 28.1266L164.877 28.7801L164.219 30.1409L162.858 29.4873ZM170.832 19.9037L165.385 17.2749L164.073 20.0012L161.346 18.6844L162.658 15.963L164.024 16.6214L164.677 15.2558L171.505 18.5381L170.832 19.9037ZM169.667 32.7696L169.013 34.1304L164.926 32.1795L166.238 29.458L164.877 28.7996L165.531 27.4389L166.896 28.0925L168.208 25.371L161.38 22.0887L162.039 20.723L168.867 24.0103L170.818 19.9232L172.183 20.5768L171.525 21.9423L172.886 22.5959L168.291 32.1307L169.667 32.7696ZM175.968 38.9002L176.802 37.6371L175.539 36.808L186.332 20.3768L183.806 18.7185L182.976 19.9818L181.713 19.1477L180.879 20.4158L182.147 21.2449L173.008 35.1448L171.744 34.3157L170.915 35.5789L175.968 38.9002ZM189.877 41.1486C189.235 42.2267 188.828 43.4284 188.683 44.6748C188.65 45.2241 188.743 45.7736 188.956 46.281C189.169 46.7883 189.496 47.24 189.912 47.6011C190.273 47.9999 190.722 48.3105 191.222 48.5092C191.723 48.7079 192.262 48.7893 192.799 48.7472C193.699 48.6299 194.531 48.2022 195.15 47.5377C195.46 47.2321 195.697 46.8612 195.846 46.452C195.994 46.0427 196.05 45.6055 196.008 45.1722C195.879 44.0188 195.598 42.8874 195.174 41.807C194.852 40.9535 194.618 40.2463 194.467 39.6805C194.312 39.0396 194.209 38.3872 194.16 37.7297C194.107 37.0364 194.212 36.3402 194.465 35.6927C194.718 35.0452 195.114 34.4629 195.623 33.9889C196.107 33.4688 196.692 33.0533 197.343 32.7681C197.994 32.4829 198.697 32.334 199.407 32.3307C200.091 32.3099 200.771 32.429 201.407 32.6806C202.042 32.9322 202.62 33.311 203.104 33.7938C204 34.5893 204.629 35.6419 204.904 36.8079C205.092 37.8974 205.009 39.0166 204.66 40.0659L202.148 39.5781C202.403 38.8298 202.458 38.028 202.309 37.2517C202.138 36.6288 201.801 36.0641 201.334 35.6179C201.094 35.3735 200.804 35.1841 200.484 35.0628C200.164 34.9416 199.822 34.8913 199.48 34.9156C198.799 34.9348 198.152 35.2223 197.681 35.7155C197.327 36.0413 197.066 36.4544 196.923 36.9133C196.78 37.3722 196.76 37.8607 196.866 38.3296C196.935 38.8075 197.029 39.2813 197.149 39.7488C197.257 40.1 197.452 40.6853 197.73 41.4949C197.944 42.1436 198.115 42.6605 198.217 43.0702C198.361 43.5786 198.467 44.097 198.534 44.6211C198.62 45.1696 198.635 45.727 198.578 46.2794C198.416 47.4429 197.884 48.5236 197.061 49.3618C195.97 50.5351 194.463 51.2352 192.862 51.3126C191.981 51.3659 191.098 51.2253 190.276 50.9009C189.455 50.5765 188.714 50.0761 188.107 49.4349C186.927 48.3203 186.199 46.8095 186.063 45.1918C185.934 43.5638 186.346 41.9387 187.234 40.5682L189.877 41.1486ZM209.25 61.7595C210.796 60.6929 211.886 59.0846 212.303 57.253C212.717 55.4484 212.327 53.7269 211.015 51.9321C209.703 50.1373 208.089 49.2301 206.138 49.1618C204.127 49.1217 202.163 49.7762 200.578 51.0151C198.918 52.1566 197.704 53.8364 197.14 55.7704C196.623 57.6302 197.015 59.4477 198.315 61.223C199.07 62.3537 200.143 63.2361 201.398 63.7592C202.736 64.2031 204.171 64.2672 205.543 63.9444L205.002 61.5596C202.895 62.0034 201.427 61.5985 200.159 59.872C199.789 59.4145 199.533 58.876 199.41 58.3005C199.288 57.7249 199.304 57.1287 199.456 56.5605C199.852 55.3136 200.626 54.2208 201.671 53.4342L208.274 62.4569L209.25 61.7595ZM209.162 53.2927C210.537 55.1656 210.157 57.1993 208.586 58.9502L203.636 52.1954C205.821 51.2004 207.787 51.4199 209.162 53.2927ZM217.726 62.5886L218.926 64.8272L216.634 66.0514C217.591 66.0453 218.533 66.3017 219.355 66.7927C220.155 67.2236 220.817 67.8731 221.262 68.6655C221.626 69.2898 221.826 69.9963 221.843 70.7188L219.594 71.3333C219.574 70.7113 219.407 70.1028 219.107 69.558C218.565 68.5436 217.521 67.9632 215.975 67.8364C214.429 67.7096 212.63 68.1827 210.562 69.2996L205.47 72.021L204.275 69.7824L217.726 62.5886ZM214.054 82.8922L223.93 75.1229L222.998 72.6941L210.571 82.8337L211.503 85.2723L227.52 84.5065L226.593 82.068L214.054 82.8922ZM228.636 88.8131L229.285 91.2517L214.556 95.1534L213.903 92.7148L228.636 88.8131ZM234.04 87.2914C234.262 87.4139 234.455 87.5812 234.608 87.7828C234.761 87.9844 234.87 88.2157 234.928 88.4619C234.998 88.7058 235.017 88.9616 234.985 89.2132C234.952 89.4649 234.868 89.7072 234.738 89.9251C234.611 90.1453 234.44 90.3372 234.236 90.489C234.033 90.6408 233.8 90.7493 233.553 90.8079C233.314 90.8755 233.064 90.8935 232.818 90.8608C232.573 90.8281 232.336 90.7453 232.124 90.6176C231.904 90.4895 231.713 90.3178 231.562 90.1132C231.411 89.9086 231.303 89.6752 231.246 89.4276C231.172 89.1846 231.15 88.9289 231.181 88.6769C231.212 88.425 231.296 88.1822 231.426 87.9644C231.548 87.7491 231.712 87.561 231.909 87.4116C232.106 87.2623 232.332 87.155 232.572 87.0963C232.817 87.0274 233.074 87.009 233.326 87.0426C233.579 87.0761 233.822 87.1608 234.04 87.2914ZM227.451 108.722L228.661 110.794C231.278 109.195 232.379 106.902 231.962 103.918C231.66 101.708 230.665 100.113 228.997 99.138C227.245 98.1498 225.206 97.7934 223.223 98.1285C221.22 98.3425 219.352 99.2418 217.936 100.674C216.595 102.045 216.083 103.844 216.38 106.039C216.783 109.037 218.458 110.954 221.403 111.789L222.013 109.473C220.043 108.927 218.921 107.678 218.648 105.727C218.527 105.112 218.565 104.476 218.757 103.879C218.949 103.282 219.289 102.743 219.745 102.313C220.822 101.384 222.162 100.815 223.579 100.684C224.973 100.428 226.412 100.621 227.69 101.235C228.247 101.521 228.722 101.945 229.07 102.465C229.418 102.986 229.628 103.586 229.68 104.21C229.933 106.161 229.202 107.663 227.451 108.722ZM230.66 126.991C229.208 128.183 227.361 128.785 225.486 128.679L224.306 128.65L224.613 117.476C223.305 117.457 222.023 117.846 220.945 118.588C220.478 118.944 220.102 119.405 219.848 119.934C219.594 120.463 219.468 121.045 219.482 121.631C219.423 123.773 220.335 124.997 222.272 125.933L221.238 128.152C219.956 127.566 218.862 126.636 218.077 125.465C217.404 124.28 217.097 122.922 217.195 121.563C217.253 119.365 218.056 117.688 219.604 116.53C221.236 115.352 223.223 114.77 225.232 114.882C227.245 114.879 229.197 115.567 230.763 116.832C232.25 118.066 232.972 119.803 232.914 122.002C232.855 124.202 232.094 125.816 230.66 126.991ZM226.681 126.055C228.997 125.631 230.543 124.255 230.607 121.939C230.67 119.622 229.241 118.237 226.91 117.686L226.681 126.055ZM217.887 136.775C218.16 135.268 219.355 134.297 221.462 133.849L220.662 131.517C219.455 131.731 218.328 132.265 217.399 133.064C216.428 133.925 215.796 135.104 215.614 136.39C215.304 137.704 215.518 139.088 216.209 140.248C216.585 140.784 217.07 141.235 217.633 141.571C218.195 141.907 218.822 142.121 219.472 142.198C220.228 142.356 221.016 142.237 221.691 141.862C222.36 141.5 222.936 140.987 223.374 140.365C223.669 139.959 223.953 139.517 224.234 139.08L224.234 139.08C225.181 137.607 226.09 136.192 227.275 136.414C227.526 136.442 227.767 136.521 227.985 136.647C228.203 136.773 228.392 136.943 228.54 137.147C228.688 137.35 228.792 137.582 228.846 137.828C228.899 138.074 228.901 138.328 228.851 138.575C228.714 139.492 228.051 140.321 226.9 141.057L228.051 143.008C228.855 142.668 229.56 142.129 230.099 141.441C230.637 140.753 230.992 139.94 231.128 139.077C231.262 138.497 231.277 137.896 231.174 137.309C231.071 136.723 230.852 136.163 230.528 135.663C230.215 135.199 229.809 134.804 229.335 134.505C228.862 134.205 228.332 134.007 227.778 133.922C226.963 133.747 226.114 133.854 225.368 134.224C224.686 134.568 224.096 135.069 223.647 135.687C223.203 136.317 222.793 136.931 222.428 137.555C222.105 138.136 221.695 138.664 221.213 139.121C221.036 139.311 220.814 139.455 220.569 139.54C220.323 139.625 220.06 139.648 219.803 139.609C218.238 139.326 217.594 138.385 217.887 136.775ZM44.8114 188.927L53.5903 197.325L51.8344 199.159L44.9724 192.599L40.7682 196.988L46.3183 202.295L44.5628 204.129L39.0124 198.822L33.8475 204.221L40.9194 210.991L39.1686 212.825L30.1751 204.221L44.8114 188.927ZM55.7849 206.328L53.7219 204.865L44.8308 217.234L46.8891 218.697L50.259 214.01C51.6295 212.103 53.044 210.884 54.4827 210.318C55.9215 209.752 57.1163 209.815 58.0527 210.484C58.5548 210.848 58.9655 211.324 59.2525 211.874L60.9986 210.332C60.6686 209.69 60.178 209.144 59.5745 208.747C58.8247 208.234 57.9462 207.94 57.0382 207.899C56.0829 207.826 55.1259 208.013 54.2682 208.44L55.7849 206.328ZM64.2176 211.937L66.4123 213.215L58.7551 226.383L56.5604 225.11L64.2176 211.937ZM66.9586 207.06C67.2027 206.989 67.4588 206.971 67.7107 207.004C67.9625 207.038 68.2046 207.123 68.4218 207.255C68.644 207.379 68.8387 207.548 68.9938 207.75C69.1489 207.952 69.2613 208.183 69.3241 208.43C69.3899 208.676 69.4042 208.933 69.3665 209.185C69.3287 209.436 69.2396 209.678 69.1045 209.893C68.9847 210.109 68.8222 210.297 68.6268 210.448C68.4314 210.598 68.2071 210.706 67.9681 210.766C67.7222 210.832 67.4654 210.847 67.2137 210.809C66.9619 210.771 66.7207 210.682 66.5049 210.547C66.2836 210.428 66.0896 210.264 65.9351 210.066C65.7806 209.868 65.6691 209.64 65.6076 209.396C65.5391 209.158 65.5209 208.909 65.5545 208.663C65.5881 208.418 65.6727 208.182 65.8027 207.972C65.9203 207.745 66.0837 207.546 66.2828 207.387C66.4818 207.227 66.7121 207.111 66.9586 207.045V207.06ZM76.4789 211.488L74.1524 210.469L65.5588 230.075L67.8852 231.094L70.9578 224.091L73.7964 233.684L76.7568 234.982L73.6988 224.632L82.4241 220.833L79.4392 219.526L71.4407 222.984L76.4789 211.488ZM95.2508 236.962L94.9924 238.454L92.0125 237.937L92.2709 236.445L90.7835 236.191L91.8125 230.231L93.3049 230.49L93.5633 228.997L96.5432 229.514L96.2848 231.007L94.7924 230.748L93.7584 236.708L95.2508 236.962ZM96.8018 228.027L98.265 228.285L98.0309 229.773L96.5432 229.514L96.8018 228.027ZM96.8018 228.027L95.3094 227.768L95.5678 226.276L94.0803 226.017L94.851 221.55L96.3434 221.808L96.6018 220.316L98.0895 220.574L96.8018 228.027ZM102.181 241.234L94.7338 239.942L94.9924 238.479L102.44 239.771L102.181 241.234ZM98.3478 219.087L102.82 219.862L102.562 221.326L98.0895 220.55L98.3478 219.087ZM100.752 231.768L100.235 234.747L98.7477 234.489L99.2647 231.514L100.752 231.768ZM100.235 234.747L99.9767 236.24L101.469 236.498L101.728 235.006L100.235 234.747ZM102.303 222.833L102.562 221.34L104.049 221.599L103.274 226.071L100.294 225.554L100.811 222.574L102.303 222.833ZM101.011 230.28L102.503 230.538L102.245 232.002L100.752 231.743L101.011 230.28ZM106.454 234.294L107.917 234.552L107.146 239.02L105.654 238.761L105.395 240.254L102.415 239.737L102.674 238.244L104.166 238.503L104.942 234.035L103.449 233.777L103.708 232.284L106.688 232.801L106.454 234.294ZM109.751 224.12L108.975 228.592L107.488 228.334L107.229 229.797L105.737 229.539L105.478 231.031L102.503 230.514L102.757 229.022L104.249 229.28L104.508 227.817L105.995 228.075L106.771 223.608L105.283 223.35L105.542 221.857L108.522 222.374L108.263 223.867L109.751 224.12ZM133.888 220.452L121.773 221.369L123.368 242.483L135.78 241.541L135.585 239.01L125.831 239.747L125.265 232.299L132.922 231.719L132.732 229.188L125.075 229.768L124.616 223.701L134.083 222.984L133.888 220.452ZM139.599 225.408L142.076 224.861L142.637 227.398C142.891 226.466 143.398 225.622 144.1 224.959C144.735 224.306 145.542 223.846 146.427 223.632C147.126 223.451 147.859 223.451 148.558 223.632V225.964C147.958 225.807 147.33 225.795 146.724 225.93C145.598 226.173 144.773 227.027 144.213 228.475C143.652 229.924 143.642 231.787 144.149 234.079L145.388 239.717L142.905 240.264L139.599 225.408ZM152.328 215.663L149.89 216.439L156.464 236.825L158.878 236.045L152.328 215.663ZM170.052 216.99C171.761 217.768 173.114 219.161 173.842 220.891L174.329 221.964L164.16 226.603C164.719 227.783 165.631 228.761 166.77 229.402C167.294 229.67 167.874 229.81 168.462 229.81C169.051 229.81 169.631 229.67 170.154 229.402C172.105 228.514 172.798 227.159 172.788 225.013L175.227 224.964C175.263 226.373 174.911 227.766 174.207 228.988C173.437 230.107 172.355 230.977 171.096 231.49C169.096 232.402 167.238 232.421 165.521 231.533C163.746 230.587 162.35 229.06 161.566 227.207C160.674 225.405 160.431 223.35 160.878 221.389C161.332 219.511 162.575 218.102 164.575 217.19C166.575 216.278 168.369 216.214 170.052 216.99ZM170.959 220.97C169.564 219.077 167.648 218.297 165.541 219.258C163.434 220.218 162.814 222.106 163.346 224.447L170.959 220.97ZM177.329 210.625L175.222 212.044L183.742 224.666L185.849 223.247L182.284 217.96C181.143 216.273 180.586 214.678 180.591 213.156C180.596 211.635 181.113 210.552 182.089 209.884C183.545 208.899 184.856 209.266 186.02 210.986L191.648 219.336L193.755 217.916L187.756 209.016C186.063 206.509 183.674 206.036 181.377 207.587C179.54 208.832 178.714 210.62 178.899 212.951L177.329 210.625ZM195.877 196.418C196.586 196.146 197.358 196.075 198.105 196.213L192.604 190.424L194.447 188.673L209.191 204.202L207.352 205.948L206.06 204.587C206.168 205.382 206.064 206.191 205.758 206.933C205.452 207.787 204.951 208.557 204.294 209.181C202.719 210.674 201.002 211.308 199.169 211.074C197.335 210.84 195.608 209.854 193.979 208.147C192.35 206.44 191.458 204.655 191.321 202.812C191.185 200.968 191.892 199.276 193.467 197.783C194.151 197.145 194.977 196.677 195.877 196.418ZM204.168 204.007C203.96 202.584 203.286 201.27 202.251 200.271C201.31 199.188 200.035 198.449 198.627 198.174C198.011 198.064 197.378 198.107 196.783 198.3C196.188 198.492 195.649 198.827 195.213 199.276C194.752 199.69 194.398 200.209 194.18 200.788C193.962 201.368 193.886 201.992 193.96 202.607C194.138 204.036 194.805 205.359 195.847 206.353C196.79 207.446 198.08 208.183 199.5 208.44C200.11 208.538 200.734 208.491 201.322 208.301C201.909 208.111 202.443 207.784 202.88 207.348C203.351 206.938 203.716 206.42 203.943 205.838C204.17 205.256 204.252 204.627 204.182 204.007H204.168ZM112.697 138.989V136.156H109.839V124.719H112.697V121.861H106.981V124.719H104.122V136.156H106.981V139.014H112.697V141.847H126.992L127.011 139.014H132.708V136.156H135.566V127.543H132.708L132.727 124.719H127.011V127.577H129.869V136.156H127.011V138.989H112.697ZM109.839 116.159V119.003L112.697 119.017V121.851H115.554V118.993H112.697V104.727H109.839V107.585H106.981V116.159H109.839ZM121.271 101.855H112.697V104.713H121.271V107.546H118.413V113.262H124.134V104.688H121.271V101.855ZM121.271 130.41V124.694H124.134V121.875H129.849V119.017H132.708V116.159H135.566V107.546L132.727 107.585V104.727H127.011V107.585H129.849V116.159H126.992V119.017H124.134V121.836H121.271V124.694H118.413V130.41H121.271ZM121.271 130.41H124.134V133.268H121.271V130.41ZM71.2113 101.855H94.1878V106.659H76.2349V118.159H90.7542V122.958H76.2349V137.102H94.7436V141.906H71.2113V101.855ZM167.916 101.855H144.944L144.968 141.906H168.501V137.102H149.968V122.958H164.482V118.159H149.968V106.659H167.916V101.855ZM212.482 180.473L210.09 183.299L212.916 185.69L215.307 182.864L212.482 180.473ZM23.9334 182.646L26.8496 180.366L29.1296 183.282L26.2135 185.562L23.9334 182.646Z" fill="#E3CED3"/>
</svg>
