<svg width="30" height="13" viewBox="0 0 30 13" fill="none" xmlns="http://www.w3.org/2000/svg">
<path fill-rule="evenodd" clip-rule="evenodd" d="M0 0H6.94071V1.45098H1.51786V4.92452H5.90328V6.37403H1.51786V10.646H7.11016V12.0984H0V0ZM12.5345 10.3646V11.2204H16.8522V12.0837H12.5345V11.2278H10.8075V10.3646H9.94391V6.91168H10.8075V6.04845H12.5345V6.91168H11.671V10.3646H12.5345ZM11.671 5.18521V4.32199H10.8075V1.73084H11.671V0.867618H12.5345V5.18081H13.3981V6.04403H12.5345V5.18521H11.671ZM12.5345 0.867618V0.00439453H15.1251V0.860246H15.9887V3.45141H14.2616V1.72347H15.1251V0.867618H12.5345ZM15.1251 6.90431V8.63075H14.2616V6.90431H15.1251ZM15.9887 6.04108V6.90431H15.1251V6.04108H15.9887ZM15.9887 6.04108V5.17786H16.8522V4.31463H17.7158V1.72347H16.8522V0.860246H18.5793V1.72347H19.4428V4.31463H18.5793V5.17786H17.7158V6.04108H15.9887ZM15.1251 8.63075V9.49398H15.9887V8.63075H15.1251ZM18.5793 7.76311H19.4428V10.3528H18.5793V11.216H16.8522V10.3528H17.7158V7.76311H16.8522V6.89988H18.5793V7.76311ZM29.2188 0H22.2766L22.278 12.0984H29.3882V10.646H23.7885V6.37403H28.1754V4.92452H23.7885V1.45098H29.2188V0Z" fill="black"/>
</svg>
