<svg width="18" height="11" viewBox="0 0 18 11" fill="none" xmlns="http://www.w3.org/2000/svg">
<path d="M-0.000136614 2.57184L2.57129 2.57184L2.57129 0.000412703L-0.000136839 0.000412927L-0.000136614 2.57184Z" fill="black"/>
<path d="M7.71422 10.2861L10.2856 10.2861L10.2856 7.71471L7.71422 7.71471L7.71422 10.2861Z" fill="black"/>
<path d="M10.286 7.71484L12.8574 7.71484L12.8574 5.14342L10.286 5.14342L10.286 7.71484Z" fill="black"/>
<path d="M12.8573 5.14337L15.4287 5.14337L15.4287 2.57195L12.8573 2.57195L12.8573 5.14337Z" fill="black"/>
<path d="M15.4286 2.57184L18 2.57184L18 0.000412703L15.4286 0.000412927L15.4286 2.57184Z" fill="black"/>
<path d="M5.14293 7.71484L7.71436 7.71484L7.71436 5.14342L5.14293 5.14342L5.14293 7.71484Z" fill="black"/>
<path d="M2.57115 5.14337L5.14258 5.14337L5.14258 2.57195L2.57115 2.57195L2.57115 5.14337Z" fill="black"/>
</svg>
