<svg width="15" height="15" viewBox="0 0 15 15" fill="none" xmlns="http://www.w3.org/2000/svg">
<path d="M8.57136 0H6.4285H4.28564V2.14286H6.4285H8.57136H10.7142V0H8.57136Z" fill="black"/>
<path d="M12.8572 2.14307H10.7144V4.28592H12.8572V2.14307Z" fill="black"/>
<path d="M12.8572 4.28613V6.42899V8.57185V10.7147H15V8.57185V6.42899V4.28613H12.8572Z" fill="black"/>
<path d="M12.8572 10.7139H10.7144V12.8567H12.8572V10.7139Z" fill="black"/>
<path d="M2.14286 0H0V2.14286V4.28571V6.42857H2.14286H4.28571H6.42857V4.28571H4.28571V2.14286H2.14286V0Z" fill="black"/>
<path d="M4.28568 10.7139H2.14282V12.8567H4.28568V10.7139Z" fill="black"/>
<path d="M6.4285 12.8569H4.28564V14.9998H6.4285H8.57136H10.7142V12.8569H8.57136H6.4285Z" fill="black"/>
</svg>
