<svg width="20" height="31" viewBox="0 0 20 31" fill="none" xmlns="http://www.w3.org/2000/svg">
<g clip-path="url(#clip0_110_88)">
<path d="M6 15V2L7.5 0.5H8.5L10 2L10.5 7L17 10L19.5 12.5V22.5L18 24V26L17 27.5V30.5H8.5L7.5 29V26.5L3.5 22.5V21.5L2 20V17.5L0.5 16V13.5H2L3.5 15H6Z" fill="white"/>
<path d="M6.66249 19.3788V1.30005H5.33377V14.2152H2.67004V15.503H5.33377V19.3788H6.66249Z" fill="black"/>
<path d="M13.3375 9.04542H14.6725V7.75146H12.0088V14.209H13.3375V9.04542V9.04542Z" fill="black"/>
<path d="M16.0012 10.3334H17.3425V9.04553H14.6725V15.5031H16.0012V10.3334Z" fill="black"/>
<path d="M18.6712 11.6334H17.3425V10.3334H18.6712V11.6334Z" fill="black"/>
<path d="M20 23.2546H18.6713V11.6334H20V23.2546Z" fill="black"/>
<path d="M10.6801 7.75151H12.0088V6.45145H10.6801V1.30005H9.33875V12.9212H10.6801V7.75151Z" fill="black"/>
<path d="M2.67003 12.9213H0V16.7909H1.34131V14.2091H2.67003V12.9213V12.9213Z" fill="black"/>
<path d="M9.3388 1.30006H6.66248V0H9.3388V1.30006Z" fill="black"/>
<path d="M18.6712 27.1243H17.3425V23.2546H18.6712V27.1243Z" fill="black"/>
<path d="M16.0012 29.7122H7.99744V31H17.3362V27.1243H15.9949L16.0012 29.7122Z" fill="black"/>
<path d="M5.33379 24.5425H3.99878V23.2546H5.3275V24.5425H5.33379Z" fill="black"/>
<path d="M2.67002 20.6667H1.34131V16.7909H2.67002V20.6667V20.6667Z" fill="black"/>
<path d="M3.99876 23.2545H2.67004V20.6666H3.99876V23.2545Z" fill="black"/>
<path d="M6.66246 25.8364H5.33374V24.5486H6.66246V25.8364V25.8364Z" fill="black"/>
<path d="M8.00378 29.7122H6.66248V25.8364H8.00378V29.7122Z" fill="black"/>
</g>
<defs>
<clipPath id="clip0_110_88">
<rect width="20" height="31" fill="white"/>
</clipPath>
</defs>
</svg>
