<svg width="124" height="130" viewBox="0 0 124 130" fill="none" xmlns="http://www.w3.org/2000/svg">
<path d="M13.4836 120.006L11.3522 120.021L11.3159 114.306L13.4474 114.293L13.4836 120.006Z" fill="#B2B2B2"/>
<path d="M102.921 16.8884V19.0207H88.8473V14.7219H81.2999V10.6555H76.0736V6.43123H70.6149V2.13237H53.2351V6.43123H47.7765V10.6555H42.5502V14.7219H35.0006V19.0207H20.9288V16.8884H32.8692V12.5895H40.4188V8.52309H45.6451V4.29886H51.1037V0H72.7464V4.29886H78.205V8.52309H83.4313V12.5895H90.9788V16.8884H102.921Z" fill="#B2B2B2"/>
<path d="M110.398 112.163V114.295H13.4495V112.163H18.5884L18.8015 19.0186L20.933 19.0229L20.7198 112.163H29.0367L29.2499 28.0023L31.3813 28.0065V25.8784H42.1046V23.7525H44.236V21.6201H46.3675V19.4877H52.7618V17.3553H71.088V19.4877H77.4823V21.6201H79.6138V23.7525H81.7452V25.8784H92.4685V28.0065L94.5978 28.0023L94.8109 112.163H103.13L102.917 19.0229L105.048 19.0186L105.261 112.163H110.398Z" fill="#B2B2B2"/>
<path d="M112.534 114.306L112.498 120.021L110.366 120.006L110.402 114.293L112.534 114.306Z" fill="#B2B2B2"/>
<path d="M123.848 127.866V129.998H114.612V130H9.23555V129.998H0V127.866H9.23555V125.735H9.25047L9.21424 120.044L11.3457 120.029L11.3819 125.735H112.466L112.502 120.029L114.633 120.044L114.597 125.735H114.612V127.866H123.848Z" fill="#B2B2B2"/>
<path d="M20.9331 19.0229L20.7199 112.163H18.5885L18.8016 19.0187L20.9331 19.0229Z" fill="#E3CED3"/>
<path d="M94.9233 112.163H29.149L29.3622 28.0023L31.4936 28.0065V25.8784H42.2169V23.7525H44.3484V21.6201H46.4798V19.4877H52.8742V17.3553H71.2003V19.4877H77.5947V21.6201H79.7261V23.7525H81.8575V25.8784H92.5808V28.0065L94.7102 28.0023L94.9233 112.163Z" fill="#E3CED3"/>
<path d="M102.921 16.8884V19.0207H88.8473V14.7219H81.2999V10.6555H76.0736V6.43123H70.6149V2.13237H53.2351V6.43123H47.7765V10.6555H42.5502V14.7219H35.0006V19.0207H20.9288V16.8884H32.8692V12.5895H40.4188V8.52309H45.6451V4.29886H51.1037V0H72.7464V4.29886H78.205V8.52309H83.4313V12.5895H90.9788V16.8884H102.921Z" fill="#E3CED3"/>
<path d="M105.261 112.163H103.13L102.917 19.0229L105.048 19.0187L105.261 112.163Z" fill="#E3CED3"/>
<path d="M123.848 127.866V129.998H114.612V130H9.23555V129.998H0V127.866H9.23555V125.735H9.25047L9.21424 120.044L11.3457 120.029L11.3819 125.735H112.466L112.502 120.029L114.633 120.044L114.597 125.735H114.612V127.866H123.848Z" fill="white"/>
<path d="M79.6135 21.6202H77.4821V23.7525H79.6135V21.6202Z" fill="white"/>
<path d="M77.4824 19.4877H71.088V21.6201H77.4824V19.4877Z" fill="white"/>
<path d="M71.0879 17.3553H52.7617V19.4877H71.0879V17.3553Z" fill="white"/>
<path d="M112.534 114.306L112.498 120.021L110.366 120.006L110.402 114.293L112.534 114.306Z" fill="white"/>
<path d="M102.921 16.8884V19.0207H88.8473V14.7219H81.2999V10.6555H76.0736V6.43123H70.6149V2.13237H53.2351V6.43123H47.7765V10.6555H42.5502V14.7219H35.0006V19.0207H20.9288V16.8884H32.8692V12.5895H40.4188V8.52309H45.6451V4.29886H51.1037V0H72.7464V4.29886H78.205V8.52309H83.4313V12.5895H90.9788V16.8884H102.921Z" fill="white"/>
<path d="M110.398 112.163V114.295H13.4495V112.163H18.5884L18.8015 19.0187L20.933 19.0229L20.7198 112.163H29.0367L29.2499 28.0024L31.3813 28.0066V25.8785H42.1046V23.7525H44.236V25.8849H42.1046V28.0109H31.3813L31.1682 112.163H92.6795L92.4664 28.0109H81.7452V25.8849H79.6138V23.7525H81.7452V25.8785H92.4685V28.0066L94.5978 28.0024L94.8109 112.163H103.13L102.917 19.0229L105.048 19.0187L105.261 112.163H110.398Z" fill="white"/>
<path d="M46.367 21.6202H44.2356V23.7525H46.367V21.6202Z" fill="white"/>
<path d="M52.7614 19.4877H46.3671V21.6201H52.7614V19.4877Z" fill="white"/>
<path d="M13.4836 120.006L11.3522 120.021L11.3159 114.306L13.4474 114.293L13.4836 120.006Z" fill="white"/>
<path d="M58.1203 59.5464V60.6339H54.8571V59.5464H53.77V58.4589H52.683V57.3714H51.596V56.2839H50.5089V55.1964H49.4219V59.5464H51.596V60.6339H46.1608V59.5464H47.2478V46.4963H46.1608V45.4088H54.8571V46.4963H55.9441V47.5838H57.0311V51.9339H55.9441V53.0214H53.77V51.9339H54.8571V47.5838H53.77V46.4963H49.4219V54.1089H51.596V53.0214H53.77V54.1089H52.683V55.1964H53.77V56.2839H54.8571V57.3714H55.9441V58.4589H57.0311V59.5464H58.1203Z" fill="black"/>
<path d="M64.6426 59.5464V60.6339H60.2944V59.5464H61.3815V46.4963H60.2944V45.4088H64.6426V46.4963H63.5555V59.5464H64.6426Z" fill="black"/>
<path d="M77.6867 47.5838V51.9339H76.5975V53.0214H74.4235V51.9339H75.5105V47.5838H74.4235V46.4963H70.0753V54.1089H72.2494V55.1964H70.0753V59.5464H72.2494V60.6339H66.8142V59.5464H67.9013V46.4963H66.8142V45.4088H75.5126V46.4963H76.5975V47.5838H77.6867ZM74.4256 53.0214V54.1089H72.2515V53.0214H74.4256Z" fill="black"/>
</svg>
