<svg width="43" height="46" viewBox="0 0 43 46" fill="none" xmlns="http://www.w3.org/2000/svg">
<g clip-path="url(#clip0_104_35)">
<path d="M17.426 3.03446L20.2169 3.02419L20.2065 0.207087L23.0114 0.196765L23.0218 3.01387L25.8337 3.00352L25.8544 8.62598L28.6522 8.61568L28.6729 14.2405L25.8762 14.2508L25.8555 8.62597L23.0425 8.63632L23.0218 3.01387L20.2169 3.02419L20.2376 8.64665L17.442 8.65693L17.426 3.03446ZM14.6902 19.9133L14.7006 22.7363L11.8957 22.7466L11.8853 19.9236L14.6902 19.9133L14.6799 17.0962L20.2686 17.0757L20.279 19.8928L14.6902 19.9133ZM17.5077 25.5372L17.518 28.3543L14.7213 28.3646L14.711 25.5475L17.5077 25.5372ZM17.518 28.3543L25.9327 28.3234L25.9223 25.5063L28.7144 25.496L28.7247 28.3131L25.928 28.3234L25.9383 31.1311L17.5237 31.1621L17.518 28.3543ZM0.67079 14.3424L14.6684 14.2908L14.6477 8.66722L17.4444 8.65692L17.4651 14.2817L14.6684 14.292L14.6787 17.1009L3.47666 17.1422L3.48703 19.9593L0.691497 19.9695L0.67079 14.3424ZM11.9061 25.559L11.9164 28.3761L9.12089 28.3864L9.11052 25.5693L11.9061 25.559ZM3.49858 22.781L3.48818 19.9534L6.29307 19.9431L6.30346 22.7672L9.099 22.7569L9.10934 25.5658L6.31262 25.5761L6.30229 22.7672L3.49858 22.781ZM42.6912 19.8138L39.8957 19.8241L39.9061 22.6482L37.1012 22.6585L37.1115 25.4663L34.3148 25.4766L34.3251 28.2937L37.1219 28.2834L37.1425 33.9L39.9474 33.8896L39.9681 39.5156L42.7637 39.5054L42.7844 45.129L34.3872 45.1599L34.3768 42.3428L28.7764 42.3634L28.7661 39.5545L23.1563 39.5752L23.146 36.7663L20.3411 36.7766L20.3514 39.5855L14.758 39.6061L14.7683 42.4138L9.16907 42.4344L9.17944 45.2515L0.782306 45.2824L0.761607 39.6576L3.55715 39.6473L3.53645 34.0213L6.34134 34.011L6.32067 28.3955L9.11737 28.3853L9.13804 34.0018L6.34134 34.0121L6.36204 39.637L3.55715 39.6473L3.56748 42.455L9.1679 42.4344L9.15757 39.6267L14.758 39.6061L14.7477 36.7972L20.3411 36.7766L20.3307 33.9595L23.1356 33.9492L23.146 36.7663L28.7558 36.7456L28.7661 39.5545L34.3653 39.5339L34.3757 42.3428L39.9773 42.3222L39.967 39.5145L37.1621 39.5248L37.1414 33.8988L34.3446 33.9091L34.324 28.2925L31.5296 28.3028L31.5192 25.4857L34.3148 25.4754L34.3044 22.6665L37.1012 22.6562L37.0908 19.8332L39.8957 19.8229L39.8853 17.0058L28.6833 17.047L28.6936 19.8641L23.0839 19.8848L23.0735 17.0677L28.6833 17.047L28.6729 14.2393L42.6693 14.1878L42.6912 19.8138ZM28.704 22.6859L28.6936 19.8618L31.4985 19.8515L31.5089 22.6745L28.704 22.6859Z" fill="black"/>
<path d="M3.47775 17.1375L14.6798 17.0962L14.6694 14.2874L0.671875 14.3389L0.692574 19.9637L3.48811 19.9534L3.47775 17.1375Z" fill="black"/>
<path d="M9.14147 33.9996L9.12081 28.383L6.3241 28.3932L6.34476 34.0087L6.34477 34.0098L9.14147 33.9996Z" fill="black"/>
<path d="M28.727 28.3108L28.7166 25.4937L25.9199 25.504L25.9303 28.32L25.9303 28.3211L28.727 28.3108Z" fill="black"/>
<path d="M25.9303 28.3211L25.9303 28.3199L17.5192 28.3508L17.5295 31.1597L25.9407 31.1288L25.9303 28.3211Z" fill="black"/>
<path d="M9.11051 25.5659L9.10018 22.757L6.30464 22.7673L6.30347 22.7673L6.3138 25.5762L9.11051 25.5659Z" fill="black"/>
<path d="M6.29298 19.9431L3.48926 19.9534L3.49965 22.7775L6.30337 22.7672L6.30454 22.7672L6.29298 19.9431Z" fill="black"/>
<path d="M11.9071 25.5556L9.11157 25.5659L9.12194 28.383L11.9175 28.3727L11.9071 25.5556Z" fill="black"/>
<path d="M17.4455 8.65225L14.6488 8.66254L14.6695 14.2873L17.4662 14.2771L17.4455 8.65225Z" fill="black"/>
<path d="M28.6545 8.61105L25.8578 8.62134L25.8785 14.2461L28.6752 14.2359L28.6545 8.61105Z" fill="black"/>
<path d="M17.5075 25.5349L14.7108 25.5452L14.7212 28.3623L17.5179 28.352L17.5075 25.5349Z" fill="black"/>
<path d="M25.837 3.00351L23.0251 3.01385L23.0458 8.63162L25.8577 8.62128L25.837 3.00351Z" fill="black"/>
<path d="M20.2216 3.0242L17.426 3.03448L17.4467 8.65225L20.2422 8.64197L20.2216 3.0242Z" fill="black"/>
<path d="M20.2732 17.0768L14.6798 17.0974L14.6902 19.9133L20.2836 19.8928L20.2732 17.0768Z" fill="black"/>
<path d="M14.6902 19.9133L11.8865 19.9236L11.8969 22.7466L14.7006 22.7362L14.6902 19.9133Z" fill="black"/>
<path d="M23.139 33.9468L20.3353 33.9572L20.3457 36.7743L23.1494 36.7639L23.139 33.9468Z" fill="black"/>
<path d="M34.3055 22.6642L34.3159 25.4731L37.1126 25.4628L37.1023 22.6551L37.1023 22.654L34.3055 22.6642Z" fill="black"/>
<path d="M37.123 28.2799L34.3263 28.2902L34.347 33.9068L37.1437 33.8965L37.123 28.2799Z" fill="black"/>
<path d="M34.3159 25.473L31.5204 25.4833L31.5308 28.3004L34.3263 28.2901L34.3159 25.473Z" fill="black"/>
<path d="M31.4996 19.8515L28.6959 19.8618L28.7063 22.686L31.51 22.6745L31.4996 19.8515Z" fill="black"/>
<path d="M23.0769 17.0653L23.0873 19.8812L28.6959 19.8606L28.6855 17.0458L28.6855 17.0447L23.0769 17.0653Z" fill="black"/>
<path d="M28.6855 17.0446L28.6855 17.0458L39.8864 17.0045L39.8967 19.8205L42.6923 19.8102L42.6716 14.1854L28.6752 14.2369L28.6855 17.0446Z" fill="black"/>
<path d="M34.3676 39.5316L28.7683 39.5522L28.7786 42.3611L34.3779 42.3405L34.3676 39.5316Z" fill="black"/>
<path d="M20.3457 36.7742L14.7523 36.7948L14.7627 39.6037L20.3561 39.5831L20.3457 36.7742Z" fill="black"/>
<path d="M9.17256 42.432L9.17373 42.432L14.773 42.4114L14.7627 39.6037L9.16223 39.6243L9.17256 42.432Z" fill="black"/>
<path d="M39.9486 33.8862L37.1437 33.8965L37.1644 39.5225L39.9693 39.5122L39.9486 33.8862Z" fill="black"/>
<path d="M3.57211 42.4526L3.56178 39.6449L0.766235 39.6552L0.786934 45.28L9.18407 45.2491L9.17371 42.432L9.17254 42.432L3.57211 42.4526Z" fill="black"/>
<path d="M28.758 36.7432L23.1494 36.7639L23.1598 39.5727L28.7684 39.5521L28.758 36.7432Z" fill="black"/>
<path d="M34.3779 42.3405L34.3882 45.1564L42.7854 45.1255L42.7647 39.5019L39.9692 39.5122L39.9795 42.3199L34.3779 42.3405Z" fill="black"/>
<path d="M6.34474 34.0098L6.34474 34.0086L3.54102 34.0189L3.56172 39.6449L6.36544 39.6346L6.34474 34.0098Z" fill="black"/>
</g>
<defs>
<clipPath id="clip0_104_35">
<rect width="42" height="45" fill="white" transform="translate(0.702759 0.202881)"/>
</clipPath>
</defs>
</svg>
